# xmcd CD database file
#
# Track frame offsets:
#	150
#	12730
#	30434
#	43849
#	61290
#	78283
#	94256
#	111220
#	127318
#	143944
#	160399
#	177230
#	196659
#	215943
#
# Disc length: 3140 seconds
#
# Revision: 0
# Processed by: cddbd v1.5.2PL0 Copyright (c) Steve Scherf et al.
# Submitted via: CDex 1.51
#
DISCID=ce0c420e
DTITLE=Rodrigues Viola and Henrique - Te Esperando
DYEAR=2008
DGENRE=Sertanejo Raiz
TTITLE0=Te Esperando
TTITLE1=Pescador e Catireiro
TTITLE2=Minha Amiga
TTITLE3=A Mão do Tempo
TTITLE4=Jeitão de Caboclo
TTITLE5=Tietê Sangue da Terra
TTITLE6=Raízes do Amor
TTITLE7=Olhos Azuis
TTITLE8=Tropeiro Sabido
TTITLE9=Lembranças de Boiadeiro
TTITLE10=Prisioneiro
TTITLE11=Hoje Eu Não Posso Ir
TTITLE12=Tô Fora e Tô Dentro
TTITLE13=Boiada Cuiabana
EXTD=YEAR: 2008
EXTT0=
EXTT1=
EXTT2=
EXTT3=
EXTT4=
EXTT5=
EXTT6=
EXTT7=
EXTT8=
EXTT9=
EXTT10=
EXTT11=
EXTT12=
EXTT13=
PLAYORDER=
